<svg id="Addres_footer.svg" xmlns="http://www.w3.org/2000/svg" width="12" height="14" viewBox="0 0 12 14">
  <defs>
    <style>
      .cls-1 {
        fill: #333;
        fill-rule: evenodd;
      }
    </style>
  </defs>
  <path class="cls-1" d="M763.735,5889.61l0.031,0.04-0.436.45c-0.053.05-.105,0.11-0.161,0.16l-3.624,3.74h-1.091l-3.5-3.64a5.2,5.2,0,0,1-.442-0.46l-0.2-.2,0.013-.02a5.9,5.9,0,0,1-1.327-3.7,6,6,0,0,1,12,0A5.914,5.914,0,0,1,763.735,5889.61ZM759,5882a4,4,0,0,0-4,4,3.944,3.944,0,0,0,.788,2.36l-0.007.05L759,5892l3.25-3.63-0.009-.04A3.989,3.989,0,0,0,759,5882Zm0,5.55a1.55,1.55,0,1,1,1.553-1.55A1.549,1.549,0,0,1,759,5887.55Z" transform="translate(-753 -5880)"/>
</svg>
