<svg id="Phone_small_black.svg" xmlns="http://www.w3.org/2000/svg" width="8" height="11" viewBox="0 0 8 11">
  <defs>
    <style>
      .cls-1 {
        fill: #222;
        fill-rule: evenodd;
      }
    </style>
  </defs>
  <path id="Shape_51_copy_12" data-name="Shape 51 copy 12" class="cls-1" d="M1098.82,88.652a19.724,19.724,0,0,0,1.87,1.081,0.557,0.557,0,0,1,.28.758l-0.11.382a0.859,0.859,0,0,1-.51.642,3.844,3.844,0,0,1-1.34.488c-1.29.027-2.44-1.081-3.24-2.007a11.823,11.823,0,0,1-2.3-4.042c-0.4-1.164-.77-2.718-0.11-3.837a3.915,3.915,0,0,1,1.1-.935,0.847,0.847,0,0,1,.8-0.124l0.38,0.1a0.559,0.559,0,0,1,.49.64c0,0.849-.02,1.459.01,2.157,0.01,0.29-.1.331-0.36,0.433-0.16.066-.28,0.114-0.41,0.164a0.507,0.507,0,0,0-.41.621,7.585,7.585,0,0,0,.8,2.135,7.691,7.691,0,0,0,1.43,1.77,0.5,0.5,0,0,0,.74-0.046c0.1-.087.2-0.169,0.34-0.281,0.22-.175.31-0.242,0.55-0.1h0Z" transform="translate(-1093 -81)"/>
</svg>
