<?xml version="1.0" encoding="utf-8"?>
<!-- Generator: Adobe Illustrator 19.0.0, SVG Export Plug-In . SVG Version: 6.00 Build 0)  -->
<svg version="1.1" id="logo" xmlns="http://www.w3.org/2000/svg" xmlns:xlink="http://www.w3.org/1999/xlink" x="0px" y="0px"
	 viewBox="-336 249.3 295.8 62.8" style="enable-background:new -336 249.3 295.8 62.8;" xml:space="preserve">
<style type="text/css">
	.st0{fill:#D82022;}
	.st1{fill:#212121;}
</style>
<g id="red">
	<path id="bottom" class="st0" d="M-74.4,302.8h-6.9c-2.5,0-4.5,2-4.5,4.5s2,4.5,4.5,4.5h6.9c2.5,0,4.5-2,4.5-4.5
		C-69.8,304.8-71.9,302.8-74.4,302.8z"/>
	<path id="middle" class="st0" d="M-61.9,287.8h-19.4c-2.5,0-4.5,2-4.5,4.5s2,4.5,4.5,4.5h19.4c2.5,0,4.5-2,4.5-4.5
		C-57.3,289.8-59.4,287.8-61.9,287.8z"/>
	<path id="top" class="st0" d="M-44.7,272.8h-36.6c-2.5,0-4.5,2-4.5,4.5s2,4.5,4.5,4.5h36.6c2.5,0,4.5-2,4.5-4.5
		S-42.2,272.8-44.7,272.8z"/>
</g>
<path id="s" class="st1" d="M-101.4,304.5c-0.8,1.5-1.9,2.8-3.3,3.9c-1.5,1.1-3.2,2-5.4,2.6c-2.1,0.6-4.5,1-7.3,1
	c-2.2,0-4.7-0.3-7.4-1s-5.1-1.7-7.2-3c-1.5-0.8-2.2-2-2.2-3.5c0-0.3,0.1-0.8,0.4-1.4c0.6-1.4,1.5-2.1,2.8-2.1c0.7,0,1.3,0.2,1.8,0.5
	c1.7,1,3.5,1.8,5.4,2.4c1.9,0.5,3.8,0.8,5.8,0.8c1.1,0,2.2-0.1,3.3-0.3c1.1-0.2,2.1-0.5,3-0.8c0.9-0.4,1.6-0.8,2.1-1.5
	c0.5-0.6,0.8-1.4,0.8-2.3c0-0.7-0.2-1.3-0.5-1.8c-0.4-0.5-1-1-1.9-1.5s-2.1-1-3.6-1.6c-1.5-0.6-3.4-1.3-5.7-2
	c-3.8-1.3-6.7-2.9-8.7-4.7c-2-1.8-3-4.2-3-7c0-1.7,0.4-3.2,1.2-4.5c0.8-1.3,1.9-2.5,3.3-3.5c1.4-1,3-1.7,5-2.2
	c1.9-0.5,4-0.8,6.1-0.8c3,0,5.6,0.3,7.6,0.9c2.1,0.6,4.1,1.3,6,2.2c1.6,0.8,2.5,1.9,2.5,3.4c0,0.4-0.1,0.9-0.3,1.3
	c-0.6,1.6-1.8,2.4-3.5,2.4c-0.5,0-0.9-0.1-1.3-0.3c-1.6-0.8-3.3-1.4-5.1-1.8c-1.7-0.4-3.5-0.6-5.3-0.6c-2.4,0-4.3,0.3-5.7,0.9
	s-2.1,1.6-2.1,3.1c0,0.7,0.2,1.3,0.5,1.8s0.8,0.9,1.5,1.3c0.7,0.4,1.7,0.8,2.9,1.2s2.6,0.9,4.3,1.4c2.1,0.7,4,1.4,5.7,2.1
	c1.7,0.7,3.2,1.6,4.5,2.5c1.2,1,2.2,2.1,2.9,3.3c0.7,1.2,1,2.7,1,4.4C-100.2,301.4-100.6,303-101.4,304.5z"/>
<path id="r" class="st1" d="M-133.2,277.1c-0.8,0.8-1.7,1.2-2.8,1.2c-1.8,0-3.6,0.2-5.2,0.7c-1.7,0.5-3.2,1.2-4.5,2.2
	s-2.4,2.2-3.1,3.7c-0.8,1.5-1.2,3.2-1.2,5.1v17.2c0,1.2-0.4,2.3-1.3,3.1c-0.9,0.9-1.9,1.3-3.1,1.3c-1.2,0-2.3-0.4-3.1-1.3
	c-0.9-0.9-1.3-1.9-1.3-3.1v-32c0-1.2,0.4-2.3,1.3-3.1c0.8-0.9,1.9-1.3,3.1-1.3c1.2,0,2.3,0.4,3.2,1.3s1.4,1.9,1.4,3.1v1.9
	c1.8-2.4,3.8-4.2,6-5.2s4.9-1.5,8-1.5c1.1,0,2,0.4,2.8,1.1c0.8,0.8,1.1,1.7,1.1,2.8C-131.9,275.4-132.5,276.3-133.2,277.1z"/>
<path id="e" class="st1" d="M-163.8,293.1c-0.7,0.5-1.4,0.8-2.3,0.8h-28.1c0.1,1.5,0.5,2.9,1.1,4.2c0.6,1.3,1.5,2.4,2.5,3.4
	c1.1,0.9,2.3,1.7,3.7,2.2s2.9,0.8,4.5,0.8c2.3,0,4.5-0.4,6.5-1.3c2-0.9,3.8-2.1,5.4-3.7c0.5-0.5,1.3-0.8,2.2-0.8
	c1.2,0,2.1,0.5,2.9,1.5c0.5,0.7,0.7,1.4,0.7,2.1c0,1.1-0.4,2.1-1.3,2.9c-1.9,2.1-4.4,3.7-7.4,5c-3,1.2-6.1,1.9-9.3,1.9
	c-2.9,0-5.6-0.5-8.1-1.6s-4.7-2.6-6.6-4.5c-1.9-1.9-3.4-4.1-4.5-6.6s-1.6-5.2-1.6-8.1s0.5-5.6,1.6-8.1s2.5-4.7,4.4-6.6
	c1.8-1.9,4-3.4,6.5-4.5s5.2-1.6,8.1-1.6c2.9,0,5.5,0.5,8,1.6s4.6,2.5,6.4,4.4c1.8,1.9,3.2,4,4.2,6.6c1,2.5,1.5,5.2,1.5,8.1
	C-162.8,291.8-163.1,292.5-163.8,293.1z M-175.2,280.6c-2-1.9-4.5-2.8-7.6-2.8s-5.6,0.9-7.6,2.7c-1.9,1.8-3.2,4.2-3.6,7.1h22.4
	C-172,284.8-173.2,282.5-175.2,280.6z"/>
<path id="b" class="st1" d="M-207.3,299.3c-1,2.5-2.3,4.7-4.1,6.6c-1.8,1.9-3.8,3.3-6.2,4.4c-2.4,1.1-5.1,1.6-8,1.6
	c-2.9,0-5.4-0.6-7.7-1.8c-2.3-1.2-4-2.9-5.3-5.1v2.1c0,1.2-0.4,2.3-1.3,3.1c-0.9,0.9-1.9,1.3-3.1,1.3s-2.3-0.4-3.1-1.3
	c-0.9-0.9-1.3-1.9-1.3-3.1v-53.4c0-1.2,0.4-2.2,1.3-3.1c0.7-0.9,1.8-1.3,3-1.3c1.2,0,2.3,0.4,3.1,1.3c0.9,0.8,1.3,1.9,1.3,3.1v23.5
	c1.4-2.1,3.2-3.7,5.4-5c2.2-1.3,4.7-2,7.6-2c3,0,5.7,0.5,8.1,1.6c2.4,1.1,4.5,2.5,6.2,4.4c1.7,1.9,3.1,4,4,6.6
	c0.9,2.5,1.4,5.3,1.4,8.3C-205.9,294-206.4,296.7-207.3,299.3z M-215.6,286c-0.6-1.6-1.4-3-2.4-4.1c-1-1.2-2.3-2.1-3.8-2.8
	s-3.1-1-5-1c-1.8,0-3.5,0.3-4.9,1c-1.5,0.7-2.7,1.6-3.8,2.7c-1.1,1.2-1.9,2.5-2.4,4.1c-0.5,1.6-0.8,3.3-0.8,5.1s0.3,3.5,0.8,5.1
	s1.3,2.9,2.4,4.1c1.1,1.2,2.3,2.1,3.8,2.7c1.5,0.7,3.1,1,4.9,1s3.5-0.3,5-1c1.5-0.7,2.7-1.6,3.8-2.8c1-1.2,1.8-2.6,2.4-4.1
	c0.6-1.6,0.9-3.2,0.9-5S-215,287.6-215.6,286z"/>
<path id="a" class="st1" d="M-252.7,310.1c-0.9,0.9-1.9,1.3-3.1,1.3c-1.2,0-2.3-0.4-3.1-1.3c-0.9-0.9-1.3-1.9-1.3-3.1v-0.8
	c-1.2,1.9-3,3.4-5.2,4.3c-2.3,0.9-4.6,1.4-7.1,1.4c-2,0-3.9-0.3-5.7-1c-1.8-0.7-3.4-1.6-4.8-2.8c-1.4-1.2-2.5-2.6-3.3-4.2
	c-0.8-1.6-1.2-3.4-1.2-5.3c0-2.1,0.4-4,1.2-5.6c0.8-1.6,1.9-3,3.2-4.1c1.4-1.1,3-2,4.8-2.5c1.8-0.6,3.8-0.9,6-0.9
	c2.4,0,4.6,0.3,6.8,1s4,1.7,5.4,3.1v-3.5c0-3.1-0.9-5.2-2.5-6.5c-1.7-1.2-4.4-1.8-8.1-1.8c-2.1,0-4.1,0.2-5.9,0.6
	c-1.8,0.4-3.5,1-5.2,1.7c-0.5,0.2-1,0.3-1.5,0.3c-1.5,0-2.5-0.7-3.2-2c-0.2-0.6-0.4-1.1-0.4-1.5c0-0.7,0.2-1.3,0.5-1.9
	c0.4-0.6,0.9-1.1,1.5-1.5c1.2-0.7,2.4-1.2,3.8-1.6s2.7-0.8,4-1c1.3-0.3,2.6-0.5,3.8-0.5c1.2-0.1,2.3-0.1,3.2-0.1
	c2.8,0,5.3,0.3,7.6,0.9c2.3,0.6,4.3,1.5,5.9,2.8s2.9,2.9,3.8,5c0.9,2,1.4,4.5,1.4,7.4v20.8C-251.4,308.2-251.8,309.3-252.7,310.1z
	 M-261.2,295.3c-0.6-0.8-1.3-1.5-2.2-2s-1.9-0.8-3.1-1c-1.2-0.2-2.3-0.3-3.4-0.3s-2.2,0.1-3.2,0.3c-1.1,0.2-2,0.6-2.9,1.1
	s-1.6,1.2-2.1,2c-0.5,0.8-0.8,1.8-0.8,3c0,1.2,0.3,2.2,0.8,3c0.5,0.8,1.2,1.5,2.1,2c0.8,0.5,1.8,0.9,2.9,1.1s2.1,0.4,3.1,0.4
	c1.2,0,2.3-0.1,3.5-0.4c1.2-0.3,2.2-0.7,3.1-1.2s1.7-1.2,2.2-2c0.6-0.8,0.9-1.8,0.9-2.9C-260.3,297.2-260.6,296.1-261.2,295.3z"/>
<path id="l" class="st1" d="M-293.6,310.4c-0.9,0.8-1.9,1.3-3.1,1.3c-1.2,0-2.3-0.4-3.1-1.3c-0.9-0.8-1.3-1.9-1.3-3.1v-53.4
	c0-1.2,0.4-2.3,1.3-3.1c0.9-0.9,1.9-1.3,3.1-1.3c1.2,0,2.2,0.4,3.1,1.3c0.8,0.9,1.3,1.9,1.3,3.1v53.4
	C-292.4,308.5-292.8,309.5-293.6,310.4z"/>
<path id="f" class="st1" d="M-306,255.9c-0.7,0.7-1.6,1-2.6,1h-2.5c-2.3,0-4,0.6-5.1,1.7c-1.1,1.2-1.7,3-1.7,5.6v7.2h7.7
	c1,0,1.9,0.3,2.6,1c0.7,0.7,1,1.6,1,2.6s-0.3,1.9-1,2.6c-0.7,0.7-1.6,1.1-2.6,1.1h-7.8V307c0,1.2-0.4,2.3-1.3,3.1
	c-0.9,0.9-1.9,1.3-3.1,1.3c-1.2,0-2.3-0.4-3.1-1.3c-0.9-0.9-1.3-1.9-1.3-3.1v-28.1h-5.6c-1,0-1.9-0.4-2.6-1.1c-0.7-0.7-1-1.6-1-2.6
	s0.3-1.9,1-2.6c0.7-0.7,1.6-1,2.6-1h5.5v-6.3c0-4.8,1.2-8.6,3.5-11.4c2.3-2.8,6.2-4.2,11.5-4.2h3.3c1,0,1.9,0.4,2.6,1.1
	c0.7,0.6,1,1.5,1,2.5S-305.3,255.2-306,255.9z"/>
</svg>
