<?xml version="1.0" encoding="utf-8"?><svg viewBox="0 0 20 20" xmlns="http://www.w3.org/2000/svg" xmlns:xlink="http://www.w3.org/1999/xlink"><style>:root>svg{display:none}:root>svg:target{display:block}</style><svg viewBox="0 0 20 20" id="facebook" xmlns="http://www.w3.org/2000/svg"><path class="acls-1" d="M12.988 5.981L13.3 4a15.921 15.921 0 00-2.4.019 2.25 2.25 0 00-1.427.784A2.462 2.462 0 009 6.4v2.595l-2-.014v2.006l2 .008v6h2.013v-6h2.374l.313-2.016h-2.688V6.47a.561.561 0 01.67-.486c.44-.004 1.306-.003 1.306-.003z"/></svg><svg viewBox="0 0 20 20" id="instagram" xmlns="http://www.w3.org/2000/svg"><path class="bcls-1" d="M13 17H7a4 4 0 01-4-4V7a4 4 0 014-4h6a4 4 0 014 4v6a4 4 0 01-4 4zm2-10a2 2 0 00-2-2H7a2 2 0 00-2 2v6a2 2 0 002 2h6a2 2 0 002-2V7zm-5 6a3 3 0 113-3 3 3 0 01-3 3zm1-4H9v2h2V9z"/></svg><svg viewBox="0 0 20 20" id="youtube" xmlns="http://www.w3.org/2000/svg"><defs><style>.ccls-1{fill:#222;fill-rule:evenodd}</style></defs><path class="ccls-1" d="M14 16H7a4 4 0 01-4-4V8a4 4 0 014-4h7a4 4 0 014 4v4a4 4 0 01-4 4zm2-8a2 2 0 00-2-2H7a2 2 0 00-2 2v4a2 2 0 002 2h7a2 2 0 002-2V8zM9 8l4 2-4 2V8z"/></svg></svg>