<?xml version="1.0" encoding="utf-8"?><!DOCTYPE svg PUBLIC "-//W3C//DTD SVG 1.1//EN" "http://www.w3.org/Graphics/SVG/1.1/DTD/svg11.dtd"><svg viewBox="0 0 632.399 632.399" xmlns="http://www.w3.org/2000/svg" xmlns:xlink="http://www.w3.org/1999/xlink"><style>:root>svg{display:none}:root>svg:target{display:block}</style><svg viewBox="0 0 12 14" id="addres" xmlns="http://www.w3.org/2000/svg"><path class="acls-1" d="M10.735 9.61l.031.04-.436.45c-.053.05-.105.11-.161.16L6.545 14H5.454l-3.5-3.64a5.2 5.2 0 01-.442-.46l-.2-.2.013-.02a5.9 5.9 0 01-1.327-3.7 6 6 0 0112 0 5.914 5.914 0 01-1.263 3.63zM6 2a4 4 0 00-4 4 3.944 3.944 0 00.788 2.36l-.007.05L6 12l3.25-3.63-.009-.04A3.989 3.989 0 006 2zm0 5.55A1.55 1.55 0 117.553 6 1.549 1.549 0 016 7.55z"/></svg><svg viewBox="0 0 20 20" id="facebook" xmlns="http://www.w3.org/2000/svg"><path class="bcls-1" d="M12.988 5.981L13.3 4a15.921 15.921 0 00-2.4.019 2.25 2.25 0 00-1.427.784A2.462 2.462 0 009 6.4v2.595l-2-.014v2.006l2 .008v6h2.013v-6h2.374l.313-2.016h-2.688V6.47a.561.561 0 01.67-.486c.44-.004 1.306-.003 1.306-.003z"/></svg><svg viewBox="0 0 632.399 632.399" id="glass" xmlns="http://www.w3.org/2000/svg"><path d="M255.108 0C119.863 0 10.204 109.66 10.204 244.904c0 135.245 109.659 244.905 244.904 244.905 52.006 0 100.238-16.223 139.883-43.854l185.205 185.176c1.671 1.672 4.379 1.672 5.964.115l34.892-34.891c1.613-1.613 1.47-4.379-.115-5.965L438.151 407.605c38.493-43.246 61.86-100.237 61.86-162.702C500.012 109.66 390.353 0 255.108 0zm0 460.996c-119.34 0-216.092-96.752-216.092-216.092 0-119.34 96.751-216.091 216.092-216.091s216.091 96.751 216.091 216.091-96.751 216.092-216.091 216.092z"/></svg><svg viewBox="0 0 20 20" id="instagram" xmlns="http://www.w3.org/2000/svg"><path class="dcls-1" d="M13 17H7a4 4 0 01-4-4V7a4 4 0 014-4h6a4 4 0 014 4v6a4 4 0 01-4 4zm2-10a2 2 0 00-2-2H7a2 2 0 00-2 2v6a2 2 0 002 2h6a2 2 0 002-2V7zm-5 6a3 3 0 113-3 3 3 0 01-3 3zm1-4H9v2h2V9z"/></svg><svg viewBox="0 0 14 12" id="mail" xmlns="http://www.w3.org/2000/svg"><path data-name="Rectangle 406 copy" class="ecls-1" d="M12 12H2a2 2 0 01-2-2V1h.277A1.981 1.981 0 012 0h10a2 2 0 012 2v8a2 2 0 01-2 2zM2.895 2L7 5l4.105-3H2.9zM12 4.14L7 8 2 4.14V10h10V4.14z"/></svg><svg viewBox="0 0 8 11" id="phone" xmlns="http://www.w3.org/2000/svg"><path data-name="Shape 51 copy 12" class="fcls-1" d="M5.82 7.652a19.724 19.724 0 001.87 1.081.557.557 0 01.28.758l-.11.382a.859.859 0 01-.51.642 3.844 3.844 0 01-1.34.488c-1.29.027-2.44-1.081-3.24-2.007a11.823 11.823 0 01-2.3-4.042C.07 3.79-.3 2.236.36 1.117a3.915 3.915 0 011.1-.935.847.847 0 01.8-.124l.38.1a.559.559 0 01.49.64c0 .849-.02 1.459.01 2.157.01.29-.1.331-.36.433-.16.066-.28.114-.41.164a.507.507 0 00-.41.621 7.585 7.585 0 00.8 2.135 7.691 7.691 0 001.43 1.77.5.5 0 00.74-.046c.1-.087.2-.169.34-.281.22-.175.31-.242.55-.1z"/></svg><svg viewBox="0 0 512 512" id="telegram" xmlns="http://www.w3.org/2000/svg"><path d="M470.435 45.423L16.827 221.249c-18.254 8.188-24.428 24.585-4.412 33.484l116.37 37.173 281.368-174.79c15.363-10.973 31.091-8.047 17.557 4.024L186.053 341.075l-7.591 93.076c7.031 14.371 19.905 14.438 28.117 7.295l66.858-63.589 114.505 86.187c26.595 15.826 41.066 5.613 46.788-23.394l75.105-357.47c7.798-35.705-5.5-51.437-39.4-37.757z"/></svg><svg fill="none" viewBox="0 0 26 26" id="time" xmlns="http://www.w3.org/2000/svg"><path d="M13 25c6.627 0 12-5.373 12-12S19.627 1 13 1 1 6.373 1 13s5.373 12 12 12zM16.6 14.4h-4.4M12 8v6" stroke="#4F4F4F" stroke-linecap="round" stroke-miterlimit="10" stroke-width="2"/></svg><svg aria-label="Viber" viewBox="0 0 512 512" fill="#665ca7" id="viber" xmlns="http://www.w3.org/2000/svg"><rect width="512" height="512" rx="15%" fill="#fff"/><path fill="none" stroke="#665ca7" stroke-linecap="round" stroke-width="10" d="M269 186a30 30 0 0131 31m-38-58a64 64 0 0164 67m-73-93a97 97 0 0199 104"/><path d="M288 274q10-13 24-4l36 27q8 10-7 28t-28 15q-53-12-102-60t-61-104q0-20 25-34 13-9 22 5l25 35q6 12-7 22c-39 15 51 112 73 70zM95 232c0 78 14 95 36 118 7 7 32 19 38 19v69c0 4 4 7 8 3l53-63 26 1c144 0 161-56 161-147S400 85 256 85 95 141 95 232zm-30 0c0-126 55-177 191-177s191 51 191 177-55 177-191 177c-10 0-18 0-32-2l-38 43c-7 8-28 11-28-13v-42c-6 0-20-6-39-18-19-13-54-44-54-145z"/></svg><svg viewBox="0 0 512 512" id="whatsapp" xmlns="http://www.w3.org/2000/svg"><g fill="#51C85D"><path d="M500.4 241.8c-.6 63.4-16.9 113-50.8 156.1-36.4 46.3-83.8 75.7-141.8 87.6-44.8 9.1-88.4 5.1-131.2-10.4-9.5-3.5-18.8-7.6-27.7-12.5-2.7-1.5-5-1.7-8-.7-40.5 13.1-81.1 26.1-121.7 39-1.8.6-4.2 2.3-5.6 1-1.6-1.6.4-4 1-5.9 8.1-24.1 16.2-48.3 24.4-72.4 5-14.7 9.8-29.3 15-43.9 1.4-3.8.9-6.7-1.2-10.2-10.3-17.6-17.9-36.4-23.3-56.1-10.1-37-11.2-74.4-3.3-111.8 8.6-40.8 26.6-77.2 54.3-108.6 33.5-38 74.8-63.1 123.9-75.2 31.3-7.7 62.9-8.9 94.7-3.7 41.6 6.8 79.1 23.3 111.8 49.9 34 27.7 58.8 62.1 74.4 103.4 8.6 22.3 15.4 58.8 15.1 74.4zM74.6 441.5c24.8-8 48.5-15.6 72-23.3 3.1-1 5.6-.8 8.3 1 9 6 18.7 10.8 28.7 15 32.5 13.8 66.3 18.8 101.2 14.3 42.8-5.5 80.4-22.7 112-52.6 39.8-37.7 61.1-83.9 63-138.5 1.8-53.5-15.4-100.5-51.3-140.4-34.1-37.9-76.9-59.5-127.4-64.9-43.9-4.7-85 4.8-123 27.6-32.5 19.6-57.4 46.3-74.7 80-19.1 37.1-25.6 76.5-20.1 117.8 4.1 31.2 15.3 59.9 33.3 85.7 2 2.9 2.6 5.3 1.4 8.7-3.7 10.2-7 20.5-10.5 30.7-4.2 12.6-8.3 25.2-12.9 38.9z"/><path d="M141 194.7c.5-23.8 8.9-41.5 24.8-55.6 5.1-4.6 11.4-6.6 18.5-5.6 3 .4 6 .7 9 .5 5.6-.3 9.4 2.4 11.3 7.3 6.7 17.4 13.2 34.8 19.7 52.3 2.2 6-1.6 10.7-4.8 15-3.7 5.1-8.2 9.6-12.6 14.1-4.5 4.6-5.1 7.2-2 12.8 18.1 32.9 43.5 58.2 78 73.8 1.2.5 2.4 1.2 3.6 1.8 4.6 2.1 8.7 1.6 12.2-2.4 6.4-7.5 13.4-14.4 19.3-22.3 3.9-5.2 6.6-6.1 12.5-3.5 17.6 7.6 34.1 17.2 50.9 26.5 3.1 1.7 4.2 4.3 4.1 7.9-.9 29.5-17.8 44.9-47.5 51.7-14.4 3.3-27.7-.3-40.9-5.1-27.7-10-54.4-21.8-76.8-41.6-17.8-15.8-33.5-33.4-46.8-53.1-10.2-15.2-20.8-30.1-26.7-47.8-3.4-9.4-5.9-19-5.8-26.7z"/></g></svg><svg viewBox="0 0 20 20" id="youtube" xmlns="http://www.w3.org/2000/svg"><defs><style>.kcls-1{fill:#222;fill-rule:evenodd}</style></defs><path class="kcls-1" d="M14 16H7a4 4 0 01-4-4V8a4 4 0 014-4h7a4 4 0 014 4v4a4 4 0 01-4 4zm2-8a2 2 0 00-2-2H7a2 2 0 00-2 2v4a2 2 0 002 2h7a2 2 0 002-2V8zM9 8l4 2-4 2V8z"/></svg></svg>